<svg xmlns="http://www.w3.org/2000/svg" xmlns:xlink="http://www.w3.org/1999/xlink" fill="none" version="1.1" width="15.75" height="28" viewBox="0 0 15.75 28"><defs><clipPath id="master_svg0_12_649"><rect x="0" y="5" width="15.75" height="18" rx="0"/></clipPath></defs><g><rect x="0" y="0" width="15.75" height="28" rx="4" fill="#000000" fill-opacity="0" style="mix-blend-mode:passthrough"/><g><rect x="0" y="0" width="15.75" height="28" rx="0" fill="#000000" fill-opacity="0" style="mix-blend-mode:passthrough"/><g clip-path="url(#master_svg0_12_649)"><g transform="matrix(1,0,0,-1,0,42.2734375)"><g><path d="M0.316406,28.69530875Q0,28.34374875,0,27.88671875Q0,27.42968875,0.316406,27.07812875L5.94141,21.45312475Q6.29297,21.13671875,6.75,21.13671875Q7.20703,21.13671875,7.55859,21.45312475Q7.875,21.80468775,7.875,22.26171875Q7.875,22.71874875,7.55859,23.07030875L3.83203,26.76171875L14.625,26.76171875Q15.1172,26.76171875,15.4336,27.07812875Q15.75,27.39452875,15.75,27.88671875Q15.75,28.37890875,15.4336,28.69530875Q15.1172,29.01171875,14.625,29.01171875L3.83203,29.01171875L7.55859,32.70311875Q7.875,33.05471875,7.875,33.51171875Q7.875,33.96871875,7.55859,34.32031875Q7.20703,34.63671875,6.75,34.63671875Q6.29297,34.63671875,5.94141,34.32031875L0.316406,28.69530875Z" fill="#6B7280" fill-opacity="1" style="mix-blend-mode:passthrough"/></g></g></g></g></g></svg>