<svg xmlns="http://www.w3.org/2000/svg" xmlns:xlink="http://www.w3.org/1999/xlink" fill="none" version="1.1" width="14" height="24" viewBox="0 0 14 24"><defs><clipPath id="master_svg0_12_619"><rect x="0" y="3" width="14" height="16" rx="0"/></clipPath></defs><g><rect x="0" y="0" width="14" height="24" rx="4" fill="#000000" fill-opacity="0" style="mix-blend-mode:passthrough"/><g clip-path="url(#master_svg0_12_619)"><g transform="matrix(1,0,0,-1,0,38.6875)"><g><path d="M4.21875,34.78125L4,34.34375L4.21875,34.78125L4,34.34375L1,34.34375Q0.5625,34.34375,0.28125,34.06255Q0,33.78125,0,33.34375Q0,32.90625,0.28125,32.62495Q0.5625,32.34375,1,32.34375L13,32.34375Q13.4375,32.34375,13.7188,32.62495Q14,32.90625,14,33.34375Q14,33.78125,13.7188,34.06255Q13.4375,34.34375,13,34.34375L10,34.34375L9.78125,34.78125Q9.5,35.31255,8.875,35.34375L5.125,35.34375Q4.5,35.31255,4.21875,34.78125ZM13,31.34375L1,31.34375L13,31.34375L1,31.34375L1.65625,20.75Q1.71875,20.15625,2.125,19.75Q2.5625,19.34375,3.15625,19.34375L10.8438,19.34375Q11.4375,19.34375,11.875,19.75Q12.2812,20.15625,12.3438,20.75L13,31.34375Z" fill="currentColor" fill-opacity="1" style="mix-blend-mode:passthrough"/></g></g></g></g></svg>