<svg xmlns="http://www.w3.org/2000/svg" xmlns:xlink="http://www.w3.org/1999/xlink" fill="currentColor" version="1.1" width="18.500001907348633" height="13" viewBox="0 0 18.500001907348633 13"><g><path stroke="currentColor" stroke-width="1.2" d="M18.2803,0.21967C18.5732,0.512563,18.5732,0.987437,18.2803,1.28033C18.2803,1.28033,6.78033,12.7803,6.78033,12.7803C6.63764,12.923,6.44346,13.0022,6.24167,13C6.03988,12.9977,5.84751,12.9142,5.70802,12.7684C5.70802,12.7684,0.20802,7.01842,0.20802,7.01842C-0.078294,6.71909,-0.0677439,6.24433,0.231584,5.95802C0.530912,5.6717,1.00567,5.68225,1.29198,5.98158C1.29198,5.98158,6.26192,11.1774,6.26192,11.1774C6.26192,11.1774,17.2197,0.21967,17.2197,0.21967C17.5126,-0.0732233,17.9874,-0.0732233,18.2803,0.21967Z" fill-rule="evenodd" fill="currentColor" fill-opacity="1"/></g></svg>