<svg xmlns="http://www.w3.org/2000/svg" xmlns:xlink="http://www.w3.org/1999/xlink" fill="currentColor" version="1.1" viewBox="0 10 36.734375 30"  width="37" 
  height="30" >
<defs>
  <clipPath id="master_svg0_17_3208">
    <rect x="0" y="9" width="36.734375" height="30" rx="0"/>
  </clipPath>
</defs>
<g clip-path="url(#master_svg0_17_3208)">
  <g transform="matrix(1,0,0,-1,0,79.28904724121094)">
    <path d="M15.3499,67.65232362060547Q14.061,68.88282362060546,12.362,68.88282362060546Q10.6629,68.88282362060546,9.374,67.65232362060547L1.23034,59.507823620605464Q0,58.21872362060547,0,56.51952362060547Q0,54.82032362060547,1.23034,53.531223620605466L9.374,45.38671362060547Q10.6629,44.156243620605466,12.362,44.156243620605466Q14.061,44.156243620605466,15.3499,45.38671362060547L23.4936,53.531223620605466Q24.7239,54.82032362060547,24.7239,56.51952362060547Q24.7239,58.21872362060547,23.4936,59.507823620605464L15.3499,67.65232362060547ZM10.9559,56.51952362060547Q11.073,57.80862362060547,12.362,57.92572362060547Q13.6509,57.80862362060547,13.7681,56.51952362060547Q13.6509,55.23042362060547,12.362,55.11332362060547Q11.073,55.23042362060547,10.9559,56.51952362060547ZM4.86276,57.92572362060547Q6.15169,57.80862362060547,6.26886,56.51952362060547Q6.15169,55.23042362060547,4.86276,55.11332362060547Q3.57384,55.23042362060547,3.45666,56.51952362060547Q3.57384,57.80862362060547,4.86276,57.92572362060547ZM12.362,47.61327362060547Q11.073,47.73046362060547,10.9559,49.01952362060547Q11.073,50.308623620605466,12.362,50.42572362060547Q13.6509,50.308623620605466,13.7681,49.01952362060547Q13.6509,47.73046362060547,12.362,47.61327362060547ZM19.8612,57.92572362060547Q21.1501,57.80862362060547,21.2673,56.51952362060547Q21.1501,55.23042362060547,19.8612,55.11332362060547Q18.5722,55.23042362060547,18.4551,56.51952362060547Q18.5722,57.80862362060547,19.8612,57.92572362060547ZM12.362,62.61332362060547Q11.073,62.730423620605464,10.9559,64.01952362060547Q11.073,65.30862362060547,12.362,65.42572362060547Q13.6509,65.30862362060547,13.7681,64.01952362060547Q13.6509,62.730423620605464,12.362,62.61332362060547ZM17.9864,43.39452362060547Q18.045,41.812493620605466,19.0995,40.75780362060547Q20.1541,39.703117420605466,21.736,39.64452362060547L32.9848,39.64452362060547Q34.5666,39.703117420605466,35.6212,40.75780362060547Q36.6758,41.812493620605466,36.7344,43.39452362060547L36.7344,54.64452362060547Q36.6758,56.22652362060547,35.6212,57.28122362060547Q34.5666,58.33592362060547,32.9848,58.39452362060547L26.3058,58.39452362060547Q26.7745,56.75392362060547,26.423,55.11332362060547Q26.0714,53.47262362060547,24.7825,52.183623620605466L17.9864,45.38671362060547L17.9864,43.39452362060547ZM27.3604,50.42572362060547Q28.6493,50.308623620605466,28.7665,49.01952362060547Q28.6493,47.73046362060547,27.3604,47.61327362060547Q26.0714,47.73046362060547,25.9543,49.01952362060547Q26.0714,50.308623620605466,27.3604,50.42572362060547Z" fill="currentColor"/>
  </g>
</g>
</svg>