<svg xmlns="http://www.w3.org/2000/svg" xmlns:xlink="http://www.w3.org/1999/xlink" fill="currentColor" version="1.1" width="148.484375" height="48" viewBox="0 0 148.484375 48"><defs><clipPath id="master_svg0_17_3208"><rect x="0" y="9" width="36.734375" height="30" rx="0"/></clipPath></defs><g><rect x="0" y="0" width="148.484375" height="48" rx="0" fill="currentColor" fill-opacity="0" style="mix-blend-mode:passthrough"/><g><rect x="0" y="6" width="37.5" height="36" rx="0" fill="currentColor" fill-opacity="0" style="mix-blend-mode:passthrough"/><g clip-path="url(#master_svg0_17_3208)"><g transform="matrix(1,0,0,-1,0,79.28904724121094)"><g><path d="M15.3499,67.65232362060547Q14.061,68.88282362060546,12.362,68.88282362060546Q10.6629,68.88282362060546,9.374,67.65232362060547L1.23034,59.507823620605464Q0,58.21872362060547,0,56.51952362060547Q0,54.82032362060547,1.23034,53.531223620605466L9.374,45.38671362060547Q10.6629,44.156243620605466,12.362,44.156243620605466Q14.061,44.156243620605466,15.3499,45.38671362060547L23.4936,53.531223620605466Q24.7239,54.82032362060547,24.7239,56.51952362060547Q24.7239,58.21872362060547,23.4936,59.507823620605464L15.3499,67.65232362060547ZM10.9559,56.51952362060547Q11.073,57.80862362060547,12.362,57.92572362060547Q13.6509,57.80862362060547,13.7681,56.51952362060547Q13.6509,55.23042362060547,12.362,55.11332362060547Q11.073,55.23042362060547,10.9559,56.51952362060547ZM4.86276,57.92572362060547Q6.15169,57.80862362060547,6.26886,56.51952362060547Q6.15169,55.23042362060547,4.86276,55.11332362060547Q3.57384,55.23042362060547,3.45666,56.51952362060547Q3.57384,57.80862362060547,4.86276,57.92572362060547ZM12.362,47.61327362060547Q11.073,47.73046362060547,10.9559,49.01952362060547Q11.073,50.308623620605466,12.362,50.42572362060547Q13.6509,50.308623620605466,13.7681,49.01952362060547Q13.6509,47.73046362060547,12.362,47.61327362060547ZM19.8612,57.92572362060547Q21.1501,57.80862362060547,21.2673,56.51952362060547Q21.1501,55.23042362060547,19.8612,55.11332362060547Q18.5722,55.23042362060547,18.4551,56.51952362060547Q18.5722,57.80862362060547,19.8612,57.92572362060547ZM12.362,62.61332362060547Q11.073,62.730423620605464,10.9559,64.01952362060547Q11.073,65.30862362060547,12.362,65.42572362060547Q13.6509,65.30862362060547,13.7681,64.01952362060547Q13.6509,62.730423620605464,12.362,62.61332362060547ZM17.9864,43.39452362060547Q18.045,41.812493620605466,19.0995,40.75780362060547Q20.1541,39.703117420605466,21.736,39.64452362060547L32.9848,39.64452362060547Q34.5666,39.703117420605466,35.6212,40.75780362060547Q36.6758,41.812493620605466,36.7344,43.39452362060547L36.7344,54.64452362060547Q36.6758,56.22652362060547,35.6212,57.28122362060547Q34.5666,58.33592362060547,32.9848,58.39452362060547L26.3058,58.39452362060547Q26.7745,56.75392362060547,26.423,55.11332362060547Q26.0714,53.47262362060547,24.7825,52.183623620605466L17.9864,45.38671362060547L17.9864,43.39452362060547ZM27.3604,50.42572362060547Q28.6493,50.308623620605466,28.7665,49.01952362060547Q28.6493,47.73046362060547,27.3604,47.61327362060547Q26.0714,47.73046362060547,25.9543,49.01952362060547Q26.0714,50.308623620605466,27.3604,50.42572362060547Z" fill="currentColor" fill-opacity="1" style="mix-blend-mode:passthrough"/></g></g></g></g><g><rect x="45.5" y="0" width="102.984375" height="48" rx="0" fill="currentColor" fill-opacity="0" style="mix-blend-mode:passthrough"/><g><rect x="45.5" y="0" width="102.984375" height="28" rx="0" fill="currentColor" fill-opacity="0" style="mix-blend-mode:passthrough"/><g><path d="M52.33121,14.7599L48.68802,14.7599L48.66849,12.7499L51.73489,12.7499Q52.53873,12.7499,53.05814,12.5393Q53.5777,12.3287,53.83511,11.9253Q54.09268,11.5217,54.09268,10.9345Q54.09268,10.2725,53.84442,9.862Q53.59631,9.45154,53.07187,9.26172Q52.547579999999996,9.0719,51.72925,9.0719L49.69693,9.0719L49.69693,21L46.76663,21L46.76663,6.78125L51.72925,6.78125Q52.97513,6.78125,53.95352,7.01425Q54.932069999999996,7.2471,55.618700000000004,7.7276Q56.3054,8.20795,56.6641,8.93747Q57.022999999999996,9.66684,57.022999999999996,10.6629Q57.022999999999996,11.5353,56.6267,12.2798Q56.2304,13.0241,55.388149999999996,13.4899Q54.54602,13.9556,53.19028,14.0098L52.33121,14.7599ZM52.210210000000004,21L47.88632,21L49.02356,18.7191L52.210210000000004,18.7191Q52.97635,18.7191,53.46722,18.4695Q53.95825,18.2198,54.19431,17.7876Q54.43036,17.3551,54.43036,16.7988Q54.43036,16.1733,54.21658,15.7163Q54.00296,15.2592,53.54306,15.0096Q53.08316,14.7599,52.33121,14.7599L49.51337,14.7599L49.5329,12.7499L53.05264,12.7499L53.724180000000004,13.5349Q55.02087,13.5237,55.8165,13.9936Q56.6122,14.4636,56.9781,15.2188Q57.3442,15.9739,57.3442,16.8257Q57.3442,18.2002,56.7498,19.1297Q56.155699999999996,20.0593,55.008359999999996,20.5297Q53.86105,21,52.210210000000004,21ZM62.324799999999996,6L62.324799999999996,21L59.5025,21L59.5025,6L62.324799999999996,6ZM70.8955,18.4725L70.8955,10.4336L73.7178,10.4336L73.7178,21L71.0695,21L70.8955,18.4725ZM71.2175,16.2989L72.04220000000001,16.2794Q72.04220000000001,17.3408,71.7993,18.2409Q71.5565,19.141,71.0649,19.802Q70.5732,20.4629,69.8318,20.8291Q69.09049999999999,21.1953,68.09,21.1953Q67.312,21.1953,66.6656,20.9741Q66.0194,20.7527,65.55369999999999,20.2807Q65.0882,19.8086,64.8324,19.06Q64.57679999999999,18.3112,64.57679999999999,17.2633L64.57679999999999,10.4336L67.38929999999999,10.4336L67.38929999999999,17.2828Q67.38929999999999,17.7508,67.5009,18.0724Q67.61240000000001,18.3941,67.8146,18.5964Q68.0168,18.7988,68.2972,18.8897Q68.5779,18.9805,68.9158,18.9805Q69.7903,18.9805,70.292,18.6256Q70.79390000000001,18.2705,71.0057,17.6626Q71.2175,17.0547,71.2175,16.2989ZM80.7115,21.1953Q79.4822,21.1953,78.506,20.7995Q77.52969999999999,20.4037,76.8503,19.7003Q76.1709,18.9968,75.8125,18.0659Q75.4542,17.1349,75.4542,16.0746L75.4542,15.691Q75.4542,14.4879,75.7954,13.4904Q76.1366,12.4929,76.7776,11.7634Q77.4186,11.0337,78.3348,10.6361Q79.2509,10.2383,80.3976,10.2383Q81.5239,10.2383,82.3921,10.6091Q83.2603,10.9799,83.8505,11.6616Q84.44069999999999,12.3432,84.7442,13.2955Q85.04769999999999,14.2478,85.04769999999999,15.4141L85.04769999999999,16.582L76.6542,16.582L76.6542,14.7103L82.2882,14.7103L82.2882,14.4941Q82.2822,13.9102,82.0729,13.4446Q81.8637,12.9791,81.4456,12.7082Q81.0276,12.4372,80.37780000000001,12.4372Q79.8155,12.4372,79.4137,12.6795Q79.012,12.9218,78.7632,13.3602Q78.5145,13.7985,78.3955,14.392Q78.2765,14.9854,78.2765,15.691L78.2765,16.0746Q78.2765,16.7141,78.4533,17.2509Q78.6302,17.7877,78.9692,18.1765Q79.3084,18.5653,79.7902,18.7824Q80.27199999999999,18.9994,80.8885,18.9994Q81.6536,18.9994,82.31110000000001,18.7014Q82.96860000000001,18.4034,83.4468,17.7955L84.8118,19.28Q84.4832,19.7579,83.9128,20.2003Q83.3426,20.6425,82.5395,20.919Q81.7364,21.1953,80.7115,21.1953ZM88.1686,6.78125L90.6498,6.78125L94.3023,17.2216L97.9516,6.78125L100.4359,6.78125L95.2966,21L93.3017,21L88.1686,6.78125ZM86.8252,6.78125L89.30340000000001,6.78125L89.75229999999999,16.9618L89.75229999999999,21L86.8252,21L86.8252,6.78125ZM99.2981,6.78125L101.78280000000001,6.78125L101.78280000000001,21L98.8492,21L98.8492,16.9618L99.2981,6.78125ZM109.8684,18.6176L109.8684,13.9128Q109.8684,13.4068,109.7021,13.0389Q109.5359,12.671,109.19,12.4667Q108.8441,12.2624,108.2971,12.2624Q107.82509999999999,12.2624,107.4812,12.424Q107.13730000000001,12.5855,106.9517,12.8805Q106.7662,13.1753,106.7662,13.5816L103.9538,13.5816Q103.9538,12.9028,104.2698,12.2965Q104.586,11.6902,105.1774,11.2261Q105.769,10.7621,106.5983,10.5003Q107.4276,10.2383,108.4507,10.2383Q109.6759,10.2383,110.6324,10.6487Q111.589,11.0592,112.1415,11.8784Q112.6942,12.6977,112.6942,13.9323L112.6942,18.4504Q112.6942,19.3218,112.8035,19.8747Q112.9129,20.4273,113.1183,20.8372L113.1183,21L110.274,21Q110.0711,20.5683,109.9698,19.9203Q109.8684,19.2721,109.8684,18.6176ZM110.2406,14.5606L110.2601,16.161L108.6854,16.161Q108.12559999999999,16.161,107.7153,16.2864Q107.30510000000001,16.4118,107.0437,16.6395Q106.7825,16.867,106.65690000000001,17.1703Q106.5315,17.4737,106.5315,17.8362Q106.5315,18.1953,106.69980000000001,18.4831Q106.8683,18.7708,107.18,18.9341Q107.4919,19.0972,107.91120000000001,19.0972Q108.5493,19.0972,109.0153,18.8416Q109.4813,18.5859,109.7415,18.2171Q110.0018,17.8481,110.0113,17.5152L110.7496,18.7086Q110.5952,19.1056,110.3288,19.5374Q110.0625,19.9693,109.6522,20.344Q109.2419,20.7188,108.6625,20.9571Q108.08330000000001,21.1953,107.2967,21.1953Q106.2887,21.1953,105.47630000000001,20.7887Q104.66409999999999,20.3819,104.19,19.6673Q103.7159,18.9527,103.7159,18.0341Q103.7159,17.2044,104.0248,16.5583Q104.33359999999999,15.9121,104.9453,15.4676Q105.5572,15.0231,106.47579999999999,14.792Q107.39439999999999,14.5606,108.6041,14.5606L110.2406,14.5606ZM117.6764,12.7422L117.6764,21L114.8639,21L114.8639,10.4336L117.5151,10.4336L117.6764,12.7422ZM120.858,10.3617L120.8151,12.9745Q120.6105,12.9455,120.3209,12.9209Q120.0314,12.8964,119.7973,12.8964Q119.2054,12.8964,118.7698,13.0486Q118.3343,13.2009,118.0453,13.4896Q117.7563,13.7783,117.6121,14.1989Q117.4681,14.6194,117.4559,15.1559L116.8884,14.9856Q116.8884,13.9558,117.0921,13.0929Q117.2958,12.2299,117.6895,11.5872Q118.0833,10.9443,118.6604,10.5914Q119.2375,10.2383,119.9844,10.2383Q120.2128,10.2383,120.4568,10.2723Q120.7008,10.3063,120.858,10.3617ZM122.185,6L125.0006,6L125.0006,18.5787L124.7186,21L122.185,21L122.185,6ZM131.69580000000002,15.6091L131.69580000000002,15.8141Q131.69580000000002,16.9996,131.4422,17.9844Q131.18880000000001,18.9691,130.6746,19.6885Q130.1605,20.4078,129.3921,20.8016Q128.62380000000002,21.1953,127.5912,21.1953Q126.6185,21.1953,125.9112,20.8024Q125.204,20.4093,124.7261,19.6989Q124.2482,18.9883,123.957,18.0308Q123.666,17.0732,123.5157,15.9442L123.5157,15.4891Q123.666,14.3635,123.957,13.406Q124.2482,12.4485,124.7261,11.7364Q125.204,11.0243,125.9063,10.6313Q126.6087,10.2383,127.5717,10.2383Q128.614,10.2383,129.3889,10.6339Q130.1637,11.0296,130.6762,11.7492Q131.18880000000001,12.4687,131.4422,13.45Q131.69580000000002,14.4312,131.69580000000002,15.6091ZM128.8803,15.8141L128.8803,15.6091Q128.8803,14.9636,128.7867,14.3945Q128.6932,13.8252,128.4701,13.3889Q128.24720000000002,12.9527,127.8587,12.7014Q127.4704,12.4499,126.871,12.4499Q126.2933,12.4499,125.8896,12.6446Q125.486,12.8393,125.2302,13.1884Q124.9746,13.5375,124.8442,14.0206Q124.7139,14.5037,124.6858,15.0805L124.6858,16.3621Q124.723,17.1317,124.9504,17.7253Q125.1779,18.3187,125.6494,18.653Q126.1209,18.9872,126.8905,18.9872Q127.4839,18.9872,127.8741,18.7522Q128.2643,18.5172,128.4822,18.0892Q128.70010000000002,17.6611,128.7901,17.0802Q128.8803,16.4993,128.8803,15.8141ZM136.4068,6L136.4068,21L133.5846,21L133.5846,6L136.4068,6ZM143.5923,21.1953Q142.3631,21.1953,141.3868,20.7995Q140.4106,20.4037,139.7311,19.7003Q139.05180000000001,18.9968,138.6934,18.0659Q138.3351,17.1349,138.3351,16.0746L138.3351,15.691Q138.3351,14.4879,138.6763,13.4904Q139.01749999999998,12.4929,139.6585,11.7634Q140.2995,11.0337,141.2156,10.6361Q142.1318,10.2383,143.2785,10.2383Q144.4047,10.2383,145.2729,10.6091Q146.14100000000002,10.9799,146.731,11.6616Q147.322,12.3432,147.625,13.2955Q147.929,14.2478,147.929,15.4141L147.929,16.582L139.535,16.582L139.535,14.7103L145.16899999999998,14.7103L145.16899999999998,14.4941Q145.1631,13.9102,144.9537,13.4446Q144.74450000000002,12.9791,144.3264,12.7082Q143.9085,12.4372,143.2586,12.4372Q142.69639999999998,12.4372,142.2946,12.6795Q141.8928,12.9218,141.64409999999998,13.3602Q141.3954,13.7985,141.2764,14.392Q141.15730000000002,14.9854,141.15730000000002,15.691L141.15730000000002,16.0746Q141.15730000000002,16.7141,141.3342,17.2509Q141.511,17.7877,141.8501,18.1765Q142.1893,18.5653,142.671,18.7824Q143.1529,18.9994,143.7693,18.9994Q144.5344,18.9994,145.1919,18.7014Q145.849,18.4034,146.328,17.7955L147.69299999999998,19.28Q147.364,19.7579,146.79399999999998,20.2003Q146.223,20.6425,145.4203,20.919Q144.6173,21.1953,143.5923,21.1953Z" fill="currentColor" fill-opacity="1" style="mix-blend-mode:passthrough"/></g></g><g><rect x="45.5" y="28" width="102.984375" height="20" rx="0" fill="currentColor" fill-opacity="0" style="mix-blend-mode:passthrough"/><g><path d="M47.07227,33.04688L48.35059,33.04688L51.61133,41.1611L54.86523,33.04688L56.1504,33.04688L52.10352,43L51.10547,43L47.07227,33.04688ZM46.65527,33.04688L47.7832,33.04688L47.96777,39.1172L47.96777,43L46.65527,43L46.65527,33.04688ZM55.43262,33.04688L56.5605,33.04688L56.5605,43L55.24805,43L55.24805,39.1172L55.43262,33.04688ZM63.0479,41.7354L63.0479,37.92773Q63.0479,37.49023,62.8735,37.165530000000004Q62.699200000000005,36.84082,62.3506,36.66309Q62.001999999999995,36.48535,61.4893,36.48535Q61.0107,36.48535,60.6519,36.64941Q60.293,36.81348,60.091300000000004,37.08008Q59.8896,37.34668,59.8896,37.6543L58.625,37.6543Q58.625,37.25781,58.8301,36.86816Q59.0352,36.47852,59.4214,36.16064Q59.8076,35.84277,60.3511,35.65479Q60.8945,35.4668,61.564499999999995,35.4668Q62.3711,35.4668,62.9897,35.74023Q63.6084,36.01367,63.9604,36.56396Q64.3125,37.11426,64.3125,37.94141L64.3125,41.3867Q64.3125,41.7559,64.3774,42.1729Q64.44239999999999,42.5898,64.5723,42.8906L64.5723,43L63.2529,43Q63.1572,42.7812,63.1025,42.4155Q63.0479,42.0498,63.0479,41.7354ZM63.2666,38.5156L63.2803,39.4043L62.001999999999995,39.4043Q61.4619,39.4043,61.0381,39.4897Q60.6143,39.5752,60.3271,39.7461Q60.04,39.917,59.8896,40.1733Q59.7393,40.4297,59.7393,40.7715Q59.7393,41.1201,59.8965,41.4072Q60.0537,41.6943,60.3716,41.8618Q60.6895,42.0293,61.1543,42.0293Q61.7354,42.0293,62.1797,41.7832Q62.623999999999995,41.5371,62.8872,41.1816Q63.150400000000005,40.8262,63.1709,40.4912L63.710899999999995,41.0996Q63.6631,41.3867,63.4512,41.7354Q63.2393,42.084,62.8872,42.4019Q62.5352,42.7197,62.053200000000004,42.928200000000004Q61.5713,43.1367,60.9697,43.1367Q60.2178,43.1367,59.653800000000004,42.8428Q59.0898,42.5488,58.778800000000004,42.053200000000004Q58.4678,41.5576,58.4678,40.9424Q58.4678,40.3477,58.7002,39.893100000000004Q58.9326,39.4385,59.3701,39.134299999999996Q59.8076,38.8301,60.4229,38.6729Q61.0381,38.5156,61.7969,38.5156L63.2666,38.5156ZM69.3984,35.60352L69.3984,36.57422L65.3994,36.57422L65.3994,35.60352L69.3984,35.60352ZM66.7529,33.80566L68.0176,33.80566L68.0176,41.168Q68.0176,41.5439,68.13380000000001,41.7354Q68.25,41.9268,68.4346,41.9883Q68.6191,42.0498,68.83109999999999,42.0498Q68.9883,42.0498,69.1626,42.019Q69.3369,41.9883,69.4258,41.9678L69.43260000000001,43Q69.2822,43.0479,69.03960000000001,43.0923Q68.7969,43.1367,68.4551,43.1367Q67.9902,43.1367,67.6006,42.9521Q67.2109,42.7676,66.9819,42.3335Q66.7529,41.8994,66.7529,41.1611L66.7529,33.80566ZM73.9512,43.1367Q73.17869999999999,43.1367,72.5532,42.8735Q71.9277,42.6104,71.48,42.1318Q71.0322,41.6533,70.793,40.9971Q70.55369999999999,40.3408,70.55369999999999,39.5615L70.55369999999999,39.2744Q70.55369999999999,38.3721,70.8203,37.66455Q71.0869,36.95703,71.5449,36.46484Q72.0029,35.97266,72.584,35.71973Q73.16499999999999,35.4668,73.7871,35.4668Q74.5801,35.4668,75.1577,35.74023Q75.7354,36.01367,76.1045,36.50244Q76.4736,36.99121,76.6514,37.65088Q76.8291,38.3105,76.8291,39.0898L76.8291,39.6572L71.3057,39.6572L71.3057,38.625L75.5645,38.625L75.5645,38.5293Q75.5371,38.0371,75.3628,37.57227Q75.1885,37.10742,74.8125,36.80664Q74.4365,36.50586,73.7871,36.50586Q73.35640000000001,36.50586,72.9941,36.68701Q72.6318,36.86816,72.3721,37.22363Q72.1123,37.5791,71.9688,38.0918Q71.8252,38.6045,71.8252,39.2744L71.8252,39.5615Q71.8252,40.0879,71.9722,40.5493Q72.1191,41.0107,72.4028,41.3594Q72.6865,41.708,73.0933,41.9062Q73.5,42.1045,74.0195,42.1045Q74.6895,42.1045,75.1543,41.8311Q75.6191,41.5576,75.9678,41.0996L76.7334,41.708Q76.4941,42.0703,76.125,42.3984Q75.7559,42.7266,75.2192,42.9316Q74.68260000000001,43.1367,73.9512,43.1367Z" fill="currentColor" fill-opacity="1" style="mix-blend-mode:passthrough"/></g></g></g></g></svg>