<svg xmlns="http://www.w3.org/2000/svg" xmlns:xlink="http://www.w3.org/1999/xlink" fill="currentColor" version="1.1" width="16" height="14.020843505859375" viewBox="0 0 16 14.020843505859375"><g transform="matrix(1,0,0,-1,0,28.04168701171875)"><g><path d="M12.625,27.968743505859376Q13.2188,28.187543505859374,13.7188,27.750043505859374L15.7188,25.750043505859374Q16,25.437543505859374,16,25.031243505859376Q16,24.625043505859374,15.7188,24.312543505859374L13.7188,22.312513505859375Q13.2188,21.875013505859375,12.625,22.125013505859375Q12.0312,22.375013505859375,12,23.031263505859375L12,24.031243505859376L11,24.031243505859376Q10.5,24.031243505859376,10.1875,23.625013505859375L8.875,21.875013505859375L7.625,23.531263505859375L8.59375,24.843743505859376Q9.53125,26.000043505859374,11,26.031243505859376L12,26.031243505859376L12,27.031243505859376Q12.0312,27.687543505859374,12.625,27.968743505859376ZM5.125,20.187513505859375L6.375,18.531263505859375L5.125,20.187513505859375L6.375,18.531263505859375L5.40625,17.218763505859375Q4.46875,16.062513505859375,3,16.031263505859375L1,16.031263505859375Q0.5625,16.031263505859375,0.28125,16.312513505859375Q0,16.593763505859375,0,17.031263505859375Q0,17.468763505859375,0.28125,17.750013505859375Q0.5625,18.031263505859375,1,18.031263505859375L3,18.031263505859375Q3.5,18.031263505859375,3.8125,18.437513505859375L5.125,20.187513505859375ZM13.7188,14.312510505859375Q13.2188,13.875010505859375,12.625,14.093760205859375Q12.0312,14.375010505859375,12,15.031263505859375L12,16.031263505859375L11,16.031263505859375Q9.5,16.062513505859375,8.59375,17.218763505859375L3.8125,23.625013505859375Q3.5,24.031243505859376,3,24.031243505859376L1,24.031243505859376Q0.5625,24.031243505859376,0.28125,24.312543505859374Q0,24.593743505859376,0,25.031243505859376Q0,25.468743505859376,0.28125,25.750043505859374Q0.5625,26.031243505859376,1,26.031243505859376L3,26.031243505859376Q4.46875,26.000043505859374,5.40625,24.843743505859376L10.1875,18.437513505859375Q10.5,18.031263505859375,11,18.031263505859375L12,18.031263505859375L12,19.031263505859375Q12.0312,19.687513505859375,12.625,19.968763505859375Q13.2188,20.187513505859375,13.7188,19.750013505859375L15.7188,17.750013505859375Q16,17.437513505859375,16,17.031263505859375Q16,16.625013505859375,15.7188,16.312513505859375L13.7188,14.312510505859375Z" fill="currentColor000" fill-opacity="1" style="mix-blend-mode:passthrough"/></g></g></svg>