<svg xmlns="http://www.w3.org/2000/svg" xmlns:xlink="http://www.w3.org/1999/xlink" fill="none" version="1.1" width="32" height="32" viewBox="0 0 32 32"><defs><clipPath id="master_svg0_29_639"><rect x="9" y="8" width="14" height="16" rx="0"/></clipPath></defs><g><rect x="0" y="0" width="32" height="32" rx="16" fill="currentColor" fill-opacity="1" style="mix-blend-mode:passthrough"/><g clip-path="url(#master_svg0_29_639)"><g transform="matrix(1,0,0,-1,0,48.6875)"><g><path d="M16,32.34375Q17.09375,32.34375,18,32.875Q18.90625,33.40625,19.4688,34.34375Q20,35.28125,20,36.34375Q20,37.40625,19.4688,38.34375Q18.90625,39.28125,18,39.81255Q17.09375,40.34375,16,40.34375Q14.90625,40.34375,14,39.81255Q13.09375,39.28125,12.53125,38.34375Q12,37.40625,12,36.34375Q12,35.28125,12.53125,34.34375Q13.09375,33.40625,14,32.875Q14.90625,32.34375,16,32.34375ZM14.5625,30.84375Q12.21875,30.78125,10.625,29.21875Q9.0625,27.625,9,25.28125Q9,24.875,9.28125,24.625Q9.53125,24.34375,9.9375,24.34375L22.0625,24.34375Q22.4688,24.34375,22.7188,24.625Q23,24.875,23,25.28125Q22.9375,27.625,21.375,29.21875Q19.7812,30.78125,17.4375,30.84375L14.5625,30.84375Z" fill="#FFFFFF" fill-opacity="1" style="mix-blend-mode:passthrough"/></g></g></g></g></svg>