<svg xmlns="http://www.w3.org/2000/svg" xmlns:xlink="http://www.w3.org/1999/xlink" fill="none" version="1.1" width="17.5" height="14" viewBox="0 0 17.5 14"><defs><clipPath id="master_svg0_12_639"><rect x="0" y="0" width="17.5" height="14" rx="0"/></clipPath></defs><g clip-path="url(#master_svg0_12_639)"><g transform="matrix(1,0,0,-1,0,28.6015625)"><g><path d="M3.9375,28.30078125Q5.16797,28.27348125,5.82422,27.20698125Q6.42578,26.11328125,5.82422,25.01958125Q5.16797,23.953121250000002,3.9375,23.92578125Q2.70703,23.953121250000002,2.05078,25.01958125Q1.44922,26.11328125,2.05078,27.20698125Q2.70703,28.27348125,3.9375,28.30078125ZM14,28.30078125Q15.2305,28.27348125,15.8867,27.20698125Q16.4883,26.11328125,15.8867,25.01958125Q15.2305,23.953121250000002,14,23.92578125Q12.7695,23.953121250000002,12.1133,25.01958125Q11.5117,26.11328125,12.1133,27.20698125Q12.7695,28.27348125,14,28.30078125ZM0,20.12500125Q0.0273438,21.38281125,0.847656,22.20312125Q1.66797,23.023441249999998,2.92578,23.05078125L4.07422,23.05078125Q4.73047,23.05078125,5.30469,22.77734125Q5.25,22.47656125,5.25,22.17578125Q5.30469,20.56250125,6.42578,19.55078125L0.574219,19.55078125Q0.0546875,19.60547125,0,20.12500125ZM11.0742,19.55078125Q12.1953,20.56250125,12.25,22.17578125Q12.25,22.47656125,12.1953,22.77734125Q12.7695,23.05078125,13.4258,23.05078125L14.5742,23.05078125Q15.832,23.023441249999998,16.6523,22.20312125Q17.4727,21.38281125,17.5,20.12500125Q17.4453,19.60547125,16.9258,19.55078125L11.0742,19.55078125ZM6.125,22.17578125Q6.125,22.88672125,6.48047,23.48828125Q6.83594,24.08984125,7.4375,24.44528125Q8.06641,24.80078125,8.75,24.80078125Q9.43359,24.80078125,10.0625,24.44528125Q10.6641,24.08984125,11.0195,23.48828125Q11.375,22.88672125,11.375,22.17578125Q11.375,21.46484125,11.0195,20.86328125Q10.6641,20.26172125,10.0625,19.90625125Q9.43359,19.55078125,8.75,19.55078125Q8.06641,19.55078125,7.4375,19.90625125Q6.83594,20.26172125,6.48047,20.86328125Q6.125,21.46484125,6.125,22.17578125ZM3.5,15.03906225Q3.52734,16.57031125,4.56641,17.60937125Q5.60547,18.64844125,7.13672,18.67578125L10.3633,18.67578125Q11.8945,18.64844125,12.9336,17.60937125Q13.9727,16.57031125,14,15.03906225Q13.9453,14.35546875,13.2617,14.30078125L4.23828,14.30078125Q3.55469,14.35546875,3.5,15.03906225Z" fill="#6B7280" fill-opacity="1" style="mix-blend-mode:passthrough"/></g></g></g></svg>